Coordinates
version=1
nRows=13
nColumns=40
inDegrees=yes

Units are S.I. units (second, meters, Newtons, ...)
Angles are in degrees.

endheader
time	pelvis_tilt	pelvis_list	pelvis_rotation	pelvis_tx	pelvis_ty	pelvis_tz	hip_flexion_r	hip_adduction_r	hip_rotation_r	knee_angle_r	knee_angle_r_beta	ankle_angle_r	subtalar_angle_r	mtp_angle_r	hip_flexion_l	hip_adduction_l	hip_rotation_l	knee_angle_l	knee_angle_l_beta	ankle_angle_l	subtalar_angle_l	mtp_angle_l	lumbar_extension	lumbar_bending	lumbar_rotation	arm_flex_r	arm_add_r	arm_rot_r	elbow_flex_r	pro_sup_r	wrist_flex_r	wrist_dev_r	arm_flex_l	arm_add_l	arm_rot_l	elbow_flex_l	pro_sup_l	wrist_flex_l	wrist_dev_l
     54.97250000	     -5.99229808	     -5.98380606	      2.79258439	      1.05301478	      0.93113847	      0.51664947	     10.47280736	      5.33074045	    -15.87399041	     10.00163337	     10.00163337	      7.93155312	      4.14065874	     -4.97112293	     40.71876194	    -10.92961968	      4.09092341	     54.55592746	     54.55592746	     10.05281813	    -18.15251025	     12.19094008	    -11.91612696	      7.34984566	      2.89921315	     35.05388955	    -16.45263155	      8.49410921	     56.07062036	     44.84852626	      0.00000000	      0.00000000	      3.77212314	     -8.38685324	      6.35734440	     28.83055275	     46.66245686	      0.00000000	      0.00000000
     54.98471429	     -5.99559133	     -5.87611705	      3.09795416	      1.05190916	      0.93109616	      0.51595428	      9.91539061	      5.23360708	    -15.86623669	      9.78848988	      9.78848988	      8.25987257	      3.99553033	     -5.09374297	     40.93113125	    -10.41927518	      4.19393532	     51.06854650	     51.06854650	     10.07855076	    -17.75767820	     12.37390179	    -11.92948382	      7.23017690	      2.55956343	     37.10506649	    -16.19082186	      8.24116120	     57.94932823	     44.80938742	      0.00000000	      0.00000000	      2.33516388	     -8.31006854	      6.44784532	     27.84049653	     46.61204022	      0.00000000	      0.00000000
     54.99692857	     -6.04285930	     -5.74309589	      3.36336228	      1.05089908	      0.93088989	      0.51511453	      9.39429356	      5.09995252	    -15.85434484	      9.57812997	      9.57812997	      8.65784265	      3.84445295	     -5.23725636	     41.01157421	     -9.91855016	      4.19071997	     47.39225431	     47.39225431	     10.16895831	    -17.09518306	     12.52724464	    -11.87336672	      7.11830207	      2.43358725	     39.08236763	    -16.11938782	      8.02986097	     59.72983813	     44.76917667	      0.00000000	      0.00000000	      1.04705718	     -8.21483325	      6.54515401	     27.03942734	     46.56761092	      0.00000000	      0.00000000
     55.00914286	     -5.99115702	     -5.75097187	      3.70211877	      1.05015999	      0.93069495	      0.51413644	      8.73069375	      5.12511382	    -15.89962098	      9.30751661	      9.30751661	      8.96579205	      3.72526870	     -5.39696076	     40.83403015	     -9.48732723	      4.39622043	     43.54035807	     43.54035807	      9.99881156	    -16.27798118	     11.99899261	    -11.91168919	      7.22194250	      1.93607429	     40.60414275	    -15.85573637	      8.01434275	     63.23216175	     44.66772732	      0.00000000	      0.00000000	     -0.34540102	     -8.16868552	      6.74132843	     26.02789631	     46.49032832	      0.00000000	      0.00000000
     55.02135714	     -5.97341186	     -5.72297264	      3.95900700	      1.04955941	      0.93042652	      0.51312264	      8.12907987	      5.09416852	    -15.95060652	      9.11788084	      9.11788084	      9.28593150	      3.67721008	     -5.66042042	     40.44012940	     -9.14077053	      4.33799248	     39.42489547	     39.42489547	      9.17524120	    -15.27234409	      9.87617116	    -11.96989604	      7.22024820	      2.74540442	     41.01427138	    -17.20641406	      7.74078573	     68.46554553	     44.54909525	      0.00000000	      0.00000000	     -1.11437263	     -8.03644779	      7.38822979	     25.41784934	     46.29686677	      0.00000000	      0.00000000
     55.03357143	     -5.96521972	     -5.68282430	      4.19317197	      1.04908143	      0.93007974	      0.51202629	      7.55879780	      5.04242899	    -15.94679992	      8.99182876	      8.99182876	      9.67823630	      3.58923508	     -5.77400488	     40.02831508	     -8.78887618	      4.24793733	     35.57597468	     35.57597468	      9.28314135	    -13.79370044	     10.19844264	    -11.88948577	      7.21278098	      2.54670769	     42.76236828	    -16.95247997	      7.45976100	     70.08349572	     44.51996932	      0.00000000	      0.00000000	     -2.40001280	     -8.00720577	      7.56501051	     24.90723986	     46.23239850	      0.00000000	      0.00000000
     55.04578571	     -5.89335337	     -5.73406634	      4.44359658	      1.04886657	      0.92966590	      0.51084203	      6.87452603	      5.09743878	    -16.01196037	      8.80320600	      8.80320600	     10.07308644	      3.61852319	     -5.84342594	     39.49718849	     -8.54473584	      4.10921518	     31.91505625	     31.91505625	      9.33769704	    -12.23960122	     10.46386454	    -11.88322734	      7.31671537	      2.20370606	     44.25354155	    -16.60512769	      7.25238366	     72.54173473	     44.46223730	      0.00000000	      0.00000000	     -3.84996429	     -8.01110669	      7.79082457	     24.64295349	     46.14916805	      0.00000000	      0.00000000
     55.05800000	     -5.85721593	     -5.85161025	      4.67295352	      1.04884770	      0.92907008	      0.50960349	      6.22177854	      5.21085951	    -16.19231178	      8.62196897	      8.62196897	     10.54707961	      3.85204903	     -5.70503951	     38.97892843	     -8.39741778	      3.83570257	     28.56019012	     28.56019012	      9.18991561	    -10.71494024	     10.48482480	    -11.88180822	      7.48007626	      2.61450660	     44.80991988	    -17.31287276	      6.79107417	     77.08243120	     44.37595043	      0.00000000	      0.00000000	     -5.26709314	     -8.19546623	      8.63083984	     25.74995246	     45.91413356	      0.00000000	      0.00000000
     55.07021429	     -5.77454767	     -5.87753159	      4.82698173	      1.04910111	      0.92851827	      0.50836986	      5.52452212	      5.24217032	    -16.17305861	      8.49826901	      8.49826901	     11.00507714	      3.85672722	     -5.76440448	     38.32863226	     -8.21254644	      3.35717210	     25.57954662	     25.57954662	      9.13778338	     -9.40454892	     11.04880276	    -11.81578132	      7.48747265	      2.37882618	     46.17962000	    -16.92534179	      6.60444590	     78.91409343	     44.33929427	      0.00000000	      0.00000000	     -6.58728314	     -8.21283281	      8.94121513	     25.51302339	     45.82557488	      0.00000000	      0.00000000
     55.08242857	     -5.70794859	     -5.98142234	      4.99979714	      1.04946902	      0.92782893	      0.50695741	      4.83459965	      5.33777213	    -16.21083444	      8.36150104	      8.36150104	     11.43230729	      3.94385513	     -5.74914264	     37.75579318	     -8.10341619	      2.75124953	     23.12297154	     23.12297154	      8.93794515	     -8.24447600	     11.64593416	    -11.70569057	      7.66009366	      2.17409584	     47.38464494	    -16.67363728	      6.43949447	     81.16464821	     44.28858947	      0.00000000	      0.00000000	     -7.92720070	     -8.20222935	      9.23400210	     25.68113333	     45.73640217	      0.00000000	      0.00000000
     55.09464286	     -5.64528491	     -6.08149985	      5.10188066	      1.05009644	      0.92702032	      0.50558015	      4.14680905	      5.43141984	    -16.20014779	      8.26055408	      8.26055408	     11.92750121	      4.05559219	     -5.68376431	     37.20378808	     -8.02865268	      2.03489153	     21.26680967	     21.26680967	      8.74752844	     -7.42626143	     12.10613415	    -11.58556243	      7.78136426	      2.05662569	     48.36311448	    -16.48990285	      6.30897011	     83.53978499	     44.23321575	      0.00000000	      0.00000000	     -9.29945141	     -8.26581177	      9.50798506	     26.09734289	     45.64822098	      0.00000000	      0.00000000
     55.10685714	     -5.63986202	     -6.27354623	      5.18992852	      1.05087040	      0.92596240	      0.50413607	      3.53419759	      5.60166809	    -16.31647194	      8.20596641	      8.20596641	     12.60717643	      4.38452706	     -5.13460202	     36.85222739	     -8.03982455	      1.35805755	     20.15193176	     20.15193176	      8.46883327	     -6.95672865	     12.32627503	    -11.45508492	      7.98431633	      2.39615867	     48.70789589	    -17.04658034	      5.99130378	     87.61861954	     44.15679739	      0.00000000	      0.00000000	    -10.92553486	     -8.61840891	     10.43748424	     28.17966184	     45.42577178	      0.00000000	      0.00000000
     55.11907143	     -5.61643559	     -6.32028137	      5.18878037	      1.05178125	      0.92495665	      0.50264071	      2.93704481	      5.60660941	    -16.17992835	      8.24998208	      8.24998208	     13.14247919	      4.39081700	     -5.13810451	     36.32699044	     -7.95848297	      0.60769280	     19.34516879	     19.34516879	      8.05217052	     -6.80463536	     12.54190554	    -11.22010794	      7.99514527	      2.31381761	     49.75445737	    -16.81504013	      5.86272156	     88.95615576	     44.13192243	      0.00000000	      0.00000000	    -11.99734287	     -8.58288617	     10.75625056	     28.14461696	     45.35359767	      0.00000000	      0.00000000
